<?xml version="1.0" encoding="UTF-8"?>
<svg width="286px" height="360px" viewBox="0 0 286 360" version="1.1" xmlns="http://www.w3.org/2000/svg" xmlns:xlink="http://www.w3.org/1999/xlink">
    <!-- Generator: Sketch 39 (31667) - http://www.bohemiancoding.com/sketch -->
    <title>Logomark</title>
    <desc>Created with Sketch.</desc>
    <defs>
        <path d="M143,359.4453 C221.976719,359.4453 286,295.495834 286,216.610169 C286,137.724505 190.266793,48.3585324 143,0.0346687211 C95.3752731,48.3585324 0,137.724505 0,216.610169 C0,295.495834 64.0232808,359.4453 143,359.4453 Z" id="path-1"></path>
    </defs>
    <g id="Page-1" stroke="none" stroke-width="1" fill="none" fill-rule="evenodd">
        <g id="Logomark">
            <mask id="mask-2" fill="white">
                <use xlink:href="#path-1"></use>
            </mask>
            <g id="Oval-1"></g>
            <path d="M12.2174757,8.30076927 C12.2174757,8.30076927 27.0377524,-22.1457974 91.6440837,-17.2089091 C156.250415,-12.2720207 170.739568,31.2950212 220.404824,31.2950212 C270.07008,31.2950212 317.099029,-17.2089091 317.099029,-17.2089091 L317.099029,161.397842 L12.2174757,161.397842 L12.2174757,8.30076927 Z" id="Mask" fill="#E8F9A4" mask="url(#mask-2)"></path>
            <path d="M-9,128.257096 C-9,128.257096 17.3691531,87.0000005 69.3462985,87 C121.323444,86.9999995 121.994326,128.257094 180.632812,128.257094 C239.271299,128.257094 256.632912,50.186894 295.881561,87 C335.13021,123.813106 295.881553,236.354169 295.881553,236.354169 L-9,236.354169 L-9,128.257096 Z" id="Rectangle-1" fill="#92DD9B" mask="url(#mask-2)" transform="translate(143.440781, 161.677084) scale(-1, 1) translate(-143.440781, -161.677084) "></path>
            <path d="M0,170.103924 C0,170.103924 14.8202767,142.657357 79.426608,147.594246 C144.032939,152.531134 158.522093,196.098176 208.187348,196.098176 C257.852604,196.098176 263.381553,156.233378 317.871094,147.594246 C372.360634,138.955113 304.881553,326.200996 304.881553,326.200996 L0,326.200996 L0,170.103924 Z" id="Rectangle-1" fill="#19C8A3" mask="url(#mask-2)"></path>
            <path d="M-0.118446602,232.509678 C-0.118446602,232.509678 31.3883504,209.57542 91.993561,214.512308 C152.598772,219.449196 149.306408,236.797988 195.895855,236.797988 C242.485302,236.797988 285.881553,199 285.881553,199 L285.881553,385.606751 L-0.118446602,385.606751 L-0.118446602,232.509678 Z" id="Rectangle-1" fill="#189996" mask="url(#mask-2)" transform="translate(142.881553, 292.303375) scale(-1, 1) translate(-142.881553, -292.303375) "></path>
            <path d="M-17.6601562,295.416434 C-17.6601562,295.416434 -7.17972334,251.604588 57.426608,256.541476 C122.032939,261.478364 123.884259,295.416435 173.549515,295.416435 C223.21477,295.416435 236.705772,256.541476 282.881561,256.541476 C329.05735,256.541476 282.881553,435.148227 282.881553,435.148227 L-22,435.148227 L-17.6601562,295.416434 Z" id="Rectangle-1" fill="#05668D" mask="url(#mask-2)"></path>
        </g>
    </g>
</svg>